<svg width="30" height="30" viewBox="0 0 30 30" fill="none" xmlns="http://www.w3.org/2000/svg">
<g clip-path="url(#clip0_1_6261)">
<path d="M15 27.5C21.9035 27.5 27.5 21.9035 27.5 15C27.5 8.09644 21.9035 2.5 15 2.5C8.09644 2.5 2.5 8.09644 2.5 15C2.5 21.9035 8.09644 27.5 15 27.5Z" fill="white"/>
<path fill-rule="evenodd" clip-rule="evenodd" d="M27.5 15C27.5 21.9035 21.9035 27.5 15 27.5C8.09644 27.5 2.5 21.9035 2.5 15C2.5 8.09644 8.09644 2.5 15 2.5C21.9035 2.5 27.5 8.09644 27.5 15ZM20.5303 9.46967C20.8232 9.76256 20.8232 10.2374 20.5303 10.5303L16.0607 15L20.5303 19.4697C20.8232 19.7626 20.8232 20.2374 20.5303 20.5303C20.2374 20.8232 19.7626 20.8232 19.4697 20.5303L15 16.0607L10.5303 20.5303C10.2374 20.8232 9.76256 20.8232 9.46967 20.5303C9.17678 20.2374 9.17678 19.7626 9.46967 19.4697L13.9393 15L9.46967 10.5303C9.17678 10.2374 9.17678 9.76256 9.46967 9.46967C9.76256 9.17678 10.2374 9.17678 10.5303 9.46967L15 13.9393L19.4697 9.46967C19.7626 9.17678 20.2374 9.17678 20.5303 9.46967Z" fill="#6A4DBA"/>
</g>
<defs>
<clipPath id="clip0_1_6261">
<rect width="30" height="30" fill="white"/>
</clipPath>
</defs>
</svg>
