<svg width="6" height="19" viewBox="0 0 6 19" fill="none" xmlns="http://www.w3.org/2000/svg">
<path d="M0.40625 15.8281C0.40625 15.1615 0.635417 14.6042 1.09375 14.1562C1.5625 13.7083 2.18229 13.4844 2.95312 13.4844C3.72396 13.4844 4.33854 13.7083 4.79688 14.1562C5.26562 14.6042 5.5 15.1615 5.5 15.8281C5.5 16.4948 5.26562 17.0521 4.79688 17.5C4.33854 17.9479 3.72396 18.1719 2.95312 18.1719C2.18229 18.1719 1.5625 17.9479 1.09375 17.5C0.635417 17.0521 0.40625 16.4948 0.40625 15.8281ZM0.40625 2.9375C0.40625 2.27083 0.635417 1.71354 1.09375 1.26562C1.5625 0.817708 2.18229 0.59375 2.95312 0.59375C3.72396 0.59375 4.33854 0.817708 4.79688 1.26562C5.26562 1.71354 5.5 2.27083 5.5 2.9375C5.5 3.60417 5.26562 4.16146 4.79688 4.60938C4.33854 5.05729 3.72396 5.28125 2.95312 5.28125C2.18229 5.28125 1.5625 5.05729 1.09375 4.60938C0.635417 4.16146 0.40625 3.60417 0.40625 2.9375Z" fill="#B9B9B9"/>
</svg>
