<svg width="40" height="40" viewBox="0 0 40 40" fill="none" xmlns="http://www.w3.org/2000/svg">
<path d="M8.33331 31.6667C7.86109 31.6667 7.46525 31.507 7.14581 31.1875C6.82636 30.8681 6.66664 30.4722 6.66664 30C6.66664 29.5278 6.82636 29.132 7.14581 28.8125C7.46525 28.4931 7.86109 28.3333 8.33331 28.3333H9.99998V16.6667C9.99998 14.3611 10.6944 12.3125 12.0833 10.5208C13.4722 8.72918 15.2778 7.55557 17.5 7.00001V5.83334C17.5 5.1389 17.743 4.54862 18.2291 4.06251C18.7153 3.5764 19.3055 3.33334 20 3.33334C20.6944 3.33334 21.2847 3.5764 21.7708 4.06251C22.2569 4.54862 22.5 5.1389 22.5 5.83334V7.00001C24.7222 7.55557 26.5278 8.72918 27.9166 10.5208C29.3055 12.3125 30 14.3611 30 16.6667V28.3333H31.6666C32.1389 28.3333 32.5347 28.4931 32.8541 28.8125C33.1736 29.132 33.3333 29.5278 33.3333 30C33.3333 30.4722 33.1736 30.8681 32.8541 31.1875C32.5347 31.507 32.1389 31.6667 31.6666 31.6667H8.33331ZM20 36.6667C19.0833 36.6667 18.2986 36.3403 17.6458 35.6875C16.993 35.0347 16.6666 34.25 16.6666 33.3333H23.3333C23.3333 34.25 23.0069 35.0347 22.3541 35.6875C21.7014 36.3403 20.9166 36.6667 20 36.6667ZM13.3333 28.3333H26.6666V16.6667C26.6666 14.8333 26.0139 13.2639 24.7083 11.9583C23.4028 10.6528 21.8333 10 20 10C18.1666 10 16.5972 10.6528 15.2916 11.9583C13.9861 13.2639 13.3333 14.8333 13.3333 16.6667V28.3333ZM4.99998 16.6667C4.52775 16.6667 4.13192 16.4861 3.81248 16.125C3.49303 15.7639 3.36109 15.3472 3.41664 14.875C3.63886 12.7917 4.2222 10.8542 5.16664 9.06251C6.11109 7.27084 7.31942 5.70834 8.79164 4.37501C9.15275 4.06945 9.56248 3.93057 10.0208 3.95834C10.4791 3.98612 10.8472 4.19445 11.125 4.58334C11.4028 4.97223 11.5139 5.3889 11.4583 5.83334C11.4028 6.27779 11.1944 6.66668 10.8333 7.00001C9.74998 8.02779 8.86109 9.22223 8.16664 10.5833C7.4722 11.9445 7.01386 13.4167 6.79164 15C6.73609 15.4722 6.54164 15.8681 6.20831 16.1875C5.87498 16.507 5.4722 16.6667 4.99998 16.6667ZM35 16.6667C34.5278 16.6667 34.125 16.507 33.7916 16.1875C33.4583 15.8681 33.2639 15.4722 33.2083 15C32.9861 13.4167 32.5278 11.9445 31.8333 10.5833C31.1389 9.22223 30.25 8.02779 29.1666 7.00001C28.8055 6.66668 28.5972 6.27779 28.5416 5.83334C28.4861 5.3889 28.5972 4.97223 28.875 4.58334C29.1528 4.19445 29.5208 3.98612 29.9791 3.95834C30.4375 3.93057 30.8472 4.06945 31.2083 4.37501C32.6805 5.70834 33.8889 7.27084 34.8333 9.06251C35.7778 10.8542 36.3611 12.7917 36.5833 14.875C36.6389 15.3472 36.5069 15.7639 36.1875 16.125C35.868 16.4861 35.4722 16.6667 35 16.6667Z" fill="#6A4DBA"/>
</svg>
