<svg width="40" height="40" viewBox="0 0 40 40" fill="none" xmlns="http://www.w3.org/2000/svg">
<path d="M29.2498 15.2917L35.1248 9.37499C35.4582 9.04166 35.854 8.87499 36.3123 8.87499C36.7707 8.87499 37.1665 9.04166 37.4998 9.37499C37.8332 9.70832 37.9998 10.1042 37.9998 10.5625C37.9998 11.0208 37.8332 11.4167 37.4998 11.75L30.4165 18.8333C30.0832 19.1667 29.6943 19.3333 29.2498 19.3333C28.8054 19.3333 28.4165 19.1667 28.0832 18.8333L24.5415 15.2917C24.2082 14.9583 24.0415 14.5625 24.0415 14.1042C24.0415 13.6458 24.2082 13.25 24.5415 12.9167C24.8748 12.5833 25.2637 12.4167 25.7082 12.4167C26.1526 12.4167 26.5415 12.5833 26.8748 12.9167L29.2498 15.2917ZM14.9998 20C13.1665 20 11.5971 19.3472 10.2915 18.0417C8.98595 16.7361 8.33317 15.1667 8.33317 13.3333C8.33317 11.5 8.98595 9.93055 10.2915 8.62499C11.5971 7.31943 13.1665 6.66666 14.9998 6.66666C16.8332 6.66666 18.4026 7.31943 19.7082 8.62499C21.0137 9.93055 21.6665 11.5 21.6665 13.3333C21.6665 15.1667 21.0137 16.7361 19.7082 18.0417C18.4026 19.3472 16.8332 20 14.9998 20ZM1.6665 30V28.6667C1.6665 27.7222 1.90956 26.8542 2.39567 26.0625C2.88178 25.2708 3.52761 24.6667 4.33317 24.25C6.05539 23.3889 7.80539 22.743 9.58317 22.3125C11.3609 21.8819 13.1665 21.6667 14.9998 21.6667C16.8332 21.6667 18.6387 21.8819 20.4165 22.3125C22.1943 22.743 23.9443 23.3889 25.6665 24.25C26.4721 24.6667 27.1179 25.2708 27.604 26.0625C28.0901 26.8542 28.3332 27.7222 28.3332 28.6667V30C28.3332 30.9167 28.0068 31.7014 27.354 32.3542C26.7012 33.0069 25.9165 33.3333 24.9998 33.3333H4.99984C4.08317 33.3333 3.29845 33.0069 2.64567 32.3542C1.99289 31.7014 1.6665 30.9167 1.6665 30ZM4.99984 30H24.9998V28.6667C24.9998 28.3611 24.9234 28.0833 24.7707 27.8333C24.6179 27.5833 24.4165 27.3889 24.1665 27.25C22.6665 26.5 21.1526 25.9375 19.6248 25.5625C18.0971 25.1875 16.5554 25 14.9998 25C13.4443 25 11.9026 25.1875 10.3748 25.5625C8.84706 25.9375 7.33317 26.5 5.83317 27.25C5.58317 27.3889 5.38178 27.5833 5.229 27.8333C5.07623 28.0833 4.99984 28.3611 4.99984 28.6667V30ZM14.9998 16.6667C15.9165 16.6667 16.7012 16.3403 17.354 15.6875C18.0068 15.0347 18.3332 14.25 18.3332 13.3333C18.3332 12.4167 18.0068 11.6319 17.354 10.9792C16.7012 10.3264 15.9165 9.99999 14.9998 9.99999C14.0832 9.99999 13.2984 10.3264 12.6457 10.9792C11.9929 11.6319 11.6665 12.4167 11.6665 13.3333C11.6665 14.25 11.9929 15.0347 12.6457 15.6875C13.2984 16.3403 14.0832 16.6667 14.9998 16.6667Z" fill="#6A4DBA"/>
</svg>
