<svg width="40" height="40" viewBox="0 0 40 40" fill="none" xmlns="http://www.w3.org/2000/svg">
<path d="M6.66683 35C5.75016 35 4.96544 34.6736 4.31266 34.0208C3.65989 33.3681 3.3335 32.5833 3.3335 31.6667V13.3333C3.3335 12.4167 3.65989 11.632 4.31266 10.9792C4.96544 10.3264 5.75016 10 6.66683 10H13.3335V6.66668C13.3335 5.75001 13.6599 4.96529 14.3127 4.31251C14.9654 3.65973 15.7502 3.33334 16.6668 3.33334H23.3335C24.2502 3.33334 25.0349 3.65973 25.6877 4.31251C26.3404 4.96529 26.6668 5.75001 26.6668 6.66668V10H33.3335C34.2502 10 35.0349 10.3264 35.6877 10.9792C36.3404 11.632 36.6668 12.4167 36.6668 13.3333V31.6667C36.6668 32.5833 36.3404 33.3681 35.6877 34.0208C35.0349 34.6736 34.2502 35 33.3335 35H6.66683ZM16.6668 10H23.3335V6.66668H16.6668V10ZM33.3335 25H25.0002V26.6667C25.0002 27.1389 24.8404 27.5347 24.521 27.8542C24.2016 28.1736 23.8057 28.3333 23.3335 28.3333H16.6668C16.1946 28.3333 15.7988 28.1736 15.4793 27.8542C15.1599 27.5347 15.0002 27.1389 15.0002 26.6667V25H6.66683V31.6667H33.3335V25ZM18.3335 25H21.6668V21.6667H18.3335V25ZM6.66683 21.6667H15.0002V20C15.0002 19.5278 15.1599 19.132 15.4793 18.8125C15.7988 18.4931 16.1946 18.3333 16.6668 18.3333H23.3335C23.8057 18.3333 24.2016 18.4931 24.521 18.8125C24.8404 19.132 25.0002 19.5278 25.0002 20V21.6667H33.3335V13.3333H6.66683V21.6667Z" fill="#6A4DBA"/>
</svg>
